<svg xmlns="http://www.w3.org/2000/svg" xmlns:xlink="http://www.w3.org/1999/xlink" width="500" zoomAndPan="magnify" viewBox="0 0 375 374.999991" height="500" preserveAspectRatio="xMidYMid meet" version="1.0"><defs><g/><clipPath id="962537e886"><path d="M 133.746094 146.695312 L 241.195312 146.695312 L 241.195312 228.394531 L 133.746094 228.394531 Z M 133.746094 146.695312 " clip-rule="nonzero"/></clipPath><clipPath id="d9af7e78f1"><path d="M 88.722656 222.746094 L 99.839844 222.746094 L 99.839844 233.863281 L 88.722656 233.863281 Z M 88.722656 222.746094 " clip-rule="nonzero"/></clipPath><clipPath id="b3576dd15f"><path d="M 94.28125 222.746094 C 91.210938 222.746094 88.722656 225.234375 88.722656 228.304688 C 88.722656 231.375 91.210938 233.863281 94.28125 233.863281 C 97.347656 233.863281 99.839844 231.375 99.839844 228.304688 C 99.839844 225.234375 97.347656 222.746094 94.28125 222.746094 Z M 94.28125 222.746094 " clip-rule="nonzero"/></clipPath><clipPath id="cbcc1d2875"><path d="M 264.042969 222.746094 L 275.160156 222.746094 L 275.160156 233.863281 L 264.042969 233.863281 Z M 264.042969 222.746094 " clip-rule="nonzero"/></clipPath><clipPath id="e4b01a27f4"><path d="M 269.601562 222.746094 C 266.535156 222.746094 264.042969 225.234375 264.042969 228.304688 C 264.042969 231.375 266.535156 233.863281 269.601562 233.863281 C 272.671875 233.863281 275.160156 231.375 275.160156 228.304688 C 275.160156 225.234375 272.671875 222.746094 269.601562 222.746094 Z M 269.601562 222.746094 " clip-rule="nonzero"/></clipPath></defs><g fill="#1e1e1e" fill-opacity="1"><g transform="translate(104.856969, 140.562489)"><g><path d="M -3.875 -21.359375 C -2.863281 -22.210938 -1.710938 -22.851562 -0.421875 -23.28125 C 0.867188 -23.707031 2.15625 -23.859375 3.4375 -23.734375 L 3.515625 -20.78125 C 2.515625 -20.914062 1.519531 -20.84375 0.53125 -20.5625 C -0.445312 -20.289062 -1.300781 -19.847656 -2.03125 -19.234375 C -3.457031 -18.023438 -4.257812 -16.515625 -4.4375 -14.703125 C -4.613281 -12.898438 -4.109375 -11.289062 -2.921875 -9.875 C -1.722656 -8.457031 -0.21875 -7.675781 1.59375 -7.53125 C 3.414062 -7.382812 5.039062 -7.914062 6.46875 -9.125 C 7.96875 -10.375 8.828125 -12.066406 9.046875 -14.203125 L 11.828125 -13.8125 C 11.691406 -12.457031 11.3125 -11.148438 10.6875 -9.890625 C 10.0625 -8.640625 9.253906 -7.597656 8.265625 -6.765625 C 6.160156 -4.992188 3.796875 -4.203125 1.171875 -4.390625 C -1.453125 -4.585938 -3.628906 -5.71875 -5.359375 -7.78125 C -7.078125 -9.820312 -7.785156 -12.148438 -7.484375 -14.765625 C -7.191406 -17.378906 -5.988281 -19.578125 -3.875 -21.359375 Z M -3.875 -21.359375 "/></g></g></g><g fill="#1e1e1e" fill-opacity="1"><g transform="translate(126.323, 124.198802)"><g><path d="M 3.8125 -5.03125 L 11.109375 -8.59375 L 12.359375 -6.015625 L 2.21875 -1.078125 L -5.984375 -17.953125 L -3.140625 -19.328125 Z M 3.8125 -5.03125 "/></g></g></g><g fill="#1e1e1e" fill-opacity="1"><g transform="translate(147.500201, 115.19893)"><g><path d="M 2.09375 -24.765625 L -0.421875 -21.390625 L -3.078125 -20.703125 L -1.328125 -25.265625 Z M 5.4375 -1.421875 L 2.390625 -0.625 L -2.34375 -18.78125 L 0.703125 -19.578125 Z M 5.4375 -1.421875 "/></g></g></g><g fill="#1e1e1e" fill-opacity="1"><g transform="translate(163.643512, 111.228337)"><g><path d="M 18.734375 -0.46875 L 15.625 -0.390625 L 5.28125 -13.59375 L 5.625 -0.140625 L 2.46875 -0.0625 L 2 -18.828125 L 5.109375 -18.90625 L 15.5 -5.671875 L 15.15625 -19.15625 L 18.265625 -19.234375 Z M 18.734375 -0.46875 "/></g></g></g><g fill="#1e1e1e" fill-opacity="1"><g transform="translate(193.262148, 112.20607)"><g><path d="M 5.5 1.140625 L 2.421875 0.5 L 6.234375 -17.875 L 9.3125 -17.234375 Z M 5.5 1.140625 "/></g></g></g><g fill="#1e1e1e" fill-opacity="1"><g transform="translate(209.533835, 115.948)"><g><path d="M 17.5625 -12.765625 C 18.769531 -12.222656 19.84375 -11.460938 20.78125 -10.484375 C 21.726562 -9.503906 22.425781 -8.410156 22.875 -7.203125 L 20.25 -5.84375 C 19.925781 -6.800781 19.425781 -7.664062 18.75 -8.4375 C 18.082031 -9.207031 17.316406 -9.789062 16.453125 -10.1875 C 14.742188 -10.957031 13.035156 -11.023438 11.328125 -10.390625 C 9.617188 -9.753906 8.390625 -8.597656 7.640625 -6.921875 C 6.878906 -5.234375 6.828125 -3.535156 7.484375 -1.828125 C 8.140625 -0.128906 9.320312 1.101562 11.03125 1.875 C 12.8125 2.675781 14.707031 2.710938 16.71875 1.984375 L 17.578125 4.671875 C 16.296875 5.140625 14.953125 5.359375 13.546875 5.328125 C 12.148438 5.304688 10.859375 5.03125 9.671875 4.5 C 7.160156 3.375 5.425781 1.59375 4.46875 -0.84375 C 3.507812 -3.289062 3.582031 -5.742188 4.6875 -8.203125 C 5.78125 -10.640625 7.566406 -12.289062 10.046875 -13.15625 C 12.535156 -14.03125 15.039062 -13.898438 17.5625 -12.765625 Z M 17.5625 -12.765625 "/></g></g></g><g fill="#1e1e1e" fill-opacity="1"><g transform="translate(233.562949, 127.886343)"><g><path d="M 13.921875 6.078125 L 6.640625 0.03125 L 2.5625 2.125 L 0.03125 0.015625 L 18.390625 -9.109375 L 20.890625 -7.03125 L 15.1875 12.640625 L 12.578125 10.46875 Z M 14.796875 3.140625 L 17.40625 -5.53125 L 9.359375 -1.390625 Z M 14.796875 3.140625 "/></g></g></g><g clip-path="url(#962537e886)"><path fill="#040606" d="M 186.753906 198.5 C 186.753906 198.5 190.160156 218.507812 181.195312 228.394531 C 181.195312 228.394531 194.683594 220.59375 189.351562 186.585938 C 189.539062 187.246094 187.300781 170.925781 198.097656 161.058594 C 201.007812 158.503906 204.832031 156.316406 209.867188 154.898438 C 209.867188 154.898438 192.242188 163.449219 193.898438 178.371094 C 193.898438 178.371094 211.679688 180.773438 220.753906 162.566406 C 220.753906 162.566406 228.144531 149.71875 241.195312 149.996094 C 241.195312 149.996094 171.828125 132.59375 186.753906 198.5 Z M 176.882812 170.542969 C 181.546875 169.941406 184.828125 165.648438 184.226562 160.980469 C 183.609375 156.304688 179.324219 153.027344 174.667969 153.628906 C 170.015625 154.25 166.734375 158.523438 167.332031 163.207031 C 167.953125 167.875 172.226562 171.164062 176.882812 170.542969 Z M 183.140625 222.105469 C 183.140625 222.105469 193.050781 188.890625 168.917969 173.726562 C 147.519531 160.292969 140.222656 159.59375 135.570312 146.695312 C 135.570312 146.695312 124.121094 176.84375 158.597656 197.457031 C 158.597656 197.457031 172.980469 204.847656 176.300781 205.984375 C 176.300781 205.984375 175.480469 202.121094 166.550781 189.691406 C 166.550781 189.691406 184.839844 200.609375 183.140625 222.105469 " fill-opacity="1" fill-rule="nonzero"/></g><g clip-path="url(#d9af7e78f1)"><g clip-path="url(#b3576dd15f)"><path fill="#1e1e1e" d="M 88.722656 222.746094 L 99.839844 222.746094 L 99.839844 233.863281 L 88.722656 233.863281 Z M 88.722656 222.746094 " fill-opacity="1" fill-rule="nonzero"/></g></g><g fill="#1e1e1e" fill-opacity="1"><g transform="translate(79.269817, 254.940365)"><g><path d="M 8.734375 -15.265625 C 9.804688 -15.265625 10.851562 -15.054688 11.875 -14.640625 C 12.894531 -14.234375 13.773438 -13.660156 14.515625 -12.921875 L 13.015625 -11.0625 C 12.460938 -11.644531 11.804688 -12.109375 11.046875 -12.453125 C 10.296875 -12.804688 9.539062 -12.984375 8.78125 -12.984375 C 7.257812 -12.984375 5.972656 -12.460938 4.921875 -11.421875 C 3.867188 -10.390625 3.34375 -9.128906 3.34375 -7.640625 C 3.34375 -6.140625 3.867188 -4.867188 4.921875 -3.828125 C 5.972656 -2.796875 7.257812 -2.28125 8.78125 -2.28125 C 10.351562 -2.28125 11.765625 -2.878906 13.015625 -4.078125 L 14.53125 -2.390625 C 13.75 -1.617188 12.835938 -1.007812 11.796875 -0.5625 C 10.753906 -0.113281 9.703125 0.109375 8.640625 0.109375 C 6.410156 0.109375 4.535156 -0.628906 3.015625 -2.109375 C 1.492188 -3.597656 0.734375 -5.4375 0.734375 -7.625 C 0.734375 -9.78125 1.503906 -11.59375 3.046875 -13.0625 C 4.585938 -14.53125 6.484375 -15.265625 8.734375 -15.265625 Z M 8.734375 -15.265625 "/></g></g></g><g fill="#1e1e1e" fill-opacity="1"><g transform="translate(97.675796, 254.940365)"><g><path d="M 3.0625 -13.0625 C 4.613281 -14.53125 6.523438 -15.265625 8.796875 -15.265625 C 11.066406 -15.265625 12.976562 -14.53125 14.53125 -13.0625 C 16.082031 -11.59375 16.859375 -9.769531 16.859375 -7.59375 C 16.859375 -5.425781 16.082031 -3.597656 14.53125 -2.109375 C 12.976562 -0.628906 11.066406 0.109375 8.796875 0.109375 C 6.523438 0.109375 4.613281 -0.628906 3.0625 -2.109375 C 1.507812 -3.597656 0.734375 -5.425781 0.734375 -7.59375 C 0.734375 -9.769531 1.507812 -11.59375 3.0625 -13.0625 Z M 8.8125 -12.96875 C 7.3125 -12.96875 6.023438 -12.445312 4.953125 -11.40625 C 3.878906 -10.375 3.34375 -9.101562 3.34375 -7.59375 C 3.34375 -6.09375 3.878906 -4.816406 4.953125 -3.765625 C 6.035156 -2.710938 7.320312 -2.1875 8.8125 -2.1875 C 10.3125 -2.1875 11.585938 -2.710938 12.640625 -3.765625 C 13.691406 -4.816406 14.21875 -6.09375 14.21875 -7.59375 C 14.21875 -9.101562 13.691406 -10.375 12.640625 -11.40625 C 11.585938 -12.445312 10.3125 -12.96875 8.8125 -12.96875 Z M 8.8125 -12.96875 "/></g></g></g><g fill="#1e1e1e" fill-opacity="1"><g transform="translate(118.534233, 254.940365)"><g><path d="M 2 -15.203125 L 8.234375 -15.203125 C 10.503906 -15.203125 12.378906 -14.484375 13.859375 -13.046875 C 15.347656 -11.617188 16.09375 -9.800781 16.09375 -7.59375 C 16.09375 -5.394531 15.347656 -3.578125 13.859375 -2.140625 C 12.367188 -0.710938 10.472656 0 8.171875 0 L 2 0 Z M 4.5625 -12.90625 L 4.5625 -2.296875 L 8.296875 -2.296875 C 9.785156 -2.296875 11.023438 -2.789062 12.015625 -3.78125 C 13.015625 -4.78125 13.515625 -6.046875 13.515625 -7.578125 C 13.515625 -9.109375 13.003906 -10.378906 11.984375 -11.390625 C 10.960938 -12.398438 9.695312 -12.90625 8.1875 -12.90625 Z M 4.5625 -12.90625 "/></g></g></g><g fill="#1e1e1e" fill-opacity="1"><g transform="translate(138.633058, 254.940365)"><g><path d="M 3.0625 -13.0625 C 4.613281 -14.53125 6.523438 -15.265625 8.796875 -15.265625 C 11.066406 -15.265625 12.976562 -14.53125 14.53125 -13.0625 C 16.082031 -11.59375 16.859375 -9.769531 16.859375 -7.59375 C 16.859375 -5.425781 16.082031 -3.597656 14.53125 -2.109375 C 12.976562 -0.628906 11.066406 0.109375 8.796875 0.109375 C 6.523438 0.109375 4.613281 -0.628906 3.0625 -2.109375 C 1.507812 -3.597656 0.734375 -5.425781 0.734375 -7.59375 C 0.734375 -9.769531 1.507812 -11.59375 3.0625 -13.0625 Z M 8.8125 -12.96875 C 7.3125 -12.96875 6.023438 -12.445312 4.953125 -11.40625 C 3.878906 -10.375 3.34375 -9.101562 3.34375 -7.59375 C 3.34375 -6.09375 3.878906 -4.816406 4.953125 -3.765625 C 6.035156 -2.710938 7.320312 -2.1875 8.8125 -2.1875 C 10.3125 -2.1875 11.585938 -2.710938 12.640625 -3.765625 C 13.691406 -4.816406 14.21875 -6.09375 14.21875 -7.59375 C 14.21875 -9.101562 13.691406 -10.375 12.640625 -11.40625 C 11.585938 -12.445312 10.3125 -12.96875 8.8125 -12.96875 Z M 8.8125 -12.96875 "/></g></g></g><g fill="#1e1e1e" fill-opacity="1"><g transform="translate(159.491494, 254.940365)"><g/></g></g><g fill="#1e1e1e" fill-opacity="1"><g transform="translate(168.369774, 254.940365)"><g><path d="M 11.8125 -3.4375 L 4.140625 -3.4375 L 2.6875 0 L 0.015625 0 L 6.734375 -15.203125 L 9.359375 -15.203125 L 16 0 L 13.265625 0 Z M 10.84375 -5.71875 L 7.96875 -12.46875 L 5.109375 -5.71875 Z M 10.84375 -5.71875 "/></g></g></g><g fill="#1e1e1e" fill-opacity="1"><g transform="translate(187.665581, 254.940365)"><g/></g></g><g fill="#1e1e1e" fill-opacity="1"><g transform="translate(196.543861, 254.940365)"><g><path d="M 8.734375 -15.265625 C 9.804688 -15.265625 10.851562 -15.054688 11.875 -14.640625 C 12.894531 -14.234375 13.773438 -13.660156 14.515625 -12.921875 L 13.015625 -11.0625 C 12.460938 -11.644531 11.804688 -12.109375 11.046875 -12.453125 C 10.296875 -12.804688 9.539062 -12.984375 8.78125 -12.984375 C 7.257812 -12.984375 5.972656 -12.460938 4.921875 -11.421875 C 3.867188 -10.390625 3.34375 -9.128906 3.34375 -7.640625 C 3.34375 -6.140625 3.867188 -4.867188 4.921875 -3.828125 C 5.972656 -2.796875 7.257812 -2.28125 8.78125 -2.28125 C 10.351562 -2.28125 11.765625 -2.878906 13.015625 -4.078125 L 14.53125 -2.390625 C 13.75 -1.617188 12.835938 -1.007812 11.796875 -0.5625 C 10.753906 -0.113281 9.703125 0.109375 8.640625 0.109375 C 6.410156 0.109375 4.535156 -0.628906 3.015625 -2.109375 C 1.492188 -3.597656 0.734375 -5.4375 0.734375 -7.625 C 0.734375 -9.78125 1.503906 -11.59375 3.046875 -13.0625 C 4.585938 -14.53125 6.484375 -15.265625 8.734375 -15.265625 Z M 8.734375 -15.265625 "/></g></g></g><g fill="#1e1e1e" fill-opacity="1"><g transform="translate(214.949839, 254.940365)"><g><path d="M 3.0625 -13.0625 C 4.613281 -14.53125 6.523438 -15.265625 8.796875 -15.265625 C 11.066406 -15.265625 12.976562 -14.53125 14.53125 -13.0625 C 16.082031 -11.59375 16.859375 -9.769531 16.859375 -7.59375 C 16.859375 -5.425781 16.082031 -3.597656 14.53125 -2.109375 C 12.976562 -0.628906 11.066406 0.109375 8.796875 0.109375 C 6.523438 0.109375 4.613281 -0.628906 3.0625 -2.109375 C 1.507812 -3.597656 0.734375 -5.425781 0.734375 -7.59375 C 0.734375 -9.769531 1.507812 -11.59375 3.0625 -13.0625 Z M 8.8125 -12.96875 C 7.3125 -12.96875 6.023438 -12.445312 4.953125 -11.40625 C 3.878906 -10.375 3.34375 -9.101562 3.34375 -7.59375 C 3.34375 -6.09375 3.878906 -4.816406 4.953125 -3.765625 C 6.035156 -2.710938 7.320312 -2.1875 8.8125 -2.1875 C 10.3125 -2.1875 11.585938 -2.710938 12.640625 -3.765625 C 13.691406 -4.816406 14.21875 -6.09375 14.21875 -7.59375 C 14.21875 -9.101562 13.691406 -10.375 12.640625 -11.40625 C 11.585938 -12.445312 10.3125 -12.96875 8.8125 -12.96875 Z M 8.8125 -12.96875 "/></g></g></g><g fill="#1e1e1e" fill-opacity="1"><g transform="translate(235.808275, 254.940365)"><g><path d="M 2 -15.203125 L 8.234375 -15.203125 C 10.503906 -15.203125 12.378906 -14.484375 13.859375 -13.046875 C 15.347656 -11.617188 16.09375 -9.800781 16.09375 -7.59375 C 16.09375 -5.394531 15.347656 -3.578125 13.859375 -2.140625 C 12.367188 -0.710938 10.472656 0 8.171875 0 L 2 0 Z M 4.5625 -12.90625 L 4.5625 -2.296875 L 8.296875 -2.296875 C 9.785156 -2.296875 11.023438 -2.789062 12.015625 -3.78125 C 13.015625 -4.78125 13.515625 -6.046875 13.515625 -7.578125 C 13.515625 -9.109375 13.003906 -10.378906 11.984375 -11.390625 C 10.960938 -12.398438 9.695312 -12.90625 8.1875 -12.90625 Z M 4.5625 -12.90625 "/></g></g></g><g fill="#1e1e1e" fill-opacity="1"><g transform="translate(255.907097, 254.940365)"><g><path d="M 3.0625 -13.0625 C 4.613281 -14.53125 6.523438 -15.265625 8.796875 -15.265625 C 11.066406 -15.265625 12.976562 -14.53125 14.53125 -13.0625 C 16.082031 -11.59375 16.859375 -9.769531 16.859375 -7.59375 C 16.859375 -5.425781 16.082031 -3.597656 14.53125 -2.109375 C 12.976562 -0.628906 11.066406 0.109375 8.796875 0.109375 C 6.523438 0.109375 4.613281 -0.628906 3.0625 -2.109375 C 1.507812 -3.597656 0.734375 -5.425781 0.734375 -7.59375 C 0.734375 -9.769531 1.507812 -11.59375 3.0625 -13.0625 Z M 8.8125 -12.96875 C 7.3125 -12.96875 6.023438 -12.445312 4.953125 -11.40625 C 3.878906 -10.375 3.34375 -9.101562 3.34375 -7.59375 C 3.34375 -6.09375 3.878906 -4.816406 4.953125 -3.765625 C 6.035156 -2.710938 7.320312 -2.1875 8.8125 -2.1875 C 10.3125 -2.1875 11.585938 -2.710938 12.640625 -3.765625 C 13.691406 -4.816406 14.21875 -6.09375 14.21875 -7.59375 C 14.21875 -9.101562 13.691406 -10.375 12.640625 -11.40625 C 11.585938 -12.445312 10.3125 -12.96875 8.8125 -12.96875 Z M 8.8125 -12.96875 "/></g></g></g><g clip-path="url(#cbcc1d2875)"><g clip-path="url(#e4b01a27f4)"><path fill="#1e1e1e" d="M 264.042969 222.746094 L 275.160156 222.746094 L 275.160156 233.863281 L 264.042969 233.863281 Z M 264.042969 222.746094 " fill-opacity="1" fill-rule="nonzero"/></g></g></svg>